<svg width="60" height="60" viewBox="0 0 60 60" fill="none" xmlns="http://www.w3.org/2000/svg">
<rect width="60" height="60" rx="8" fill="#D4D2D0"/>
<rect x="0.5" y="0.5" width="59" height="59" rx="7.5" stroke="#928E8E" stroke-opacity="0.4"/>
<path fill-rule="evenodd" clip-rule="evenodd" d="M21.8979 40.8988V33.93L22.7724 33.2296C23.2554 33.2296 23.6469 33.5432 23.6469 33.93V40.8988C23.6469 42.0589 22.4718 43 21.0234 43C19.5751 43 18.4 42.0589 18.4 40.8988V31.0924C18.4 31.4792 18.7915 31.7928 19.2745 31.7928H20.149V40.8988C20.149 41.2853 20.541 41.5992 21.0234 41.5992C21.5059 41.5992 21.8979 41.2853 21.8979 40.8988ZM20.149 30.392H43.8921L38.9074 25.4057C38.1406 24.638 38.1398 23.547 38.9072 22.7813L43.8936 17.785H22.7724C22.2894 17.785 21.8979 17.4715 21.8979 17.0847C21.8979 16.6979 22.2894 16.3843 22.7724 16.3843H45.3478C46.2285 16.3843 46.7185 17.2006 46.1673 17.7503L40.2722 23.6571C40.0171 23.9116 40.0173 24.2746 40.2729 24.5304L46.1711 30.4306C46.712 30.9804 46.2283 31.7928 45.3478 31.7928H20.149V30.392ZM20.149 30.392H19.2745C18.7915 30.392 18.4 30.7056 18.4 31.0924V15.7004C18.4 15.3136 18.7915 15 19.2745 15C19.7575 15 20.149 15.3136 20.149 15.7004V30.392Z" fill="black"/>
</svg>
