<svg width="197" height="42" viewBox="0 0 197 42" fill="none" xmlns="http://www.w3.org/2000/svg">
<g clip-path="url(#clip0_1103_6949)">
<path d="M13.5719 11.7085C13.9413 11.7057 14.2232 12.0505 14.2368 12.5157C14.2532 13.1395 14.2533 13.1423 14.899 13.1368C16.5873 13.1259 18.2783 13.1149 19.9666 13.1012C20.0925 13.1012 20.2266 13.1341 20.3497 13.0438C20.399 12.8632 20.4017 12.6826 20.3443 12.4993C20.1883 12.4199 20.0268 12.4527 19.8709 12.4527C18.355 12.4527 16.8363 12.4527 15.3204 12.4609C15.0906 12.4609 14.8935 12.4719 14.858 12.1572C14.8115 11.7577 14.5597 11.4786 14.2368 11.2597C14.1602 11.2196 14.0435 11.1712 13.8866 11.1147C13.8455 11.1065 13.5938 11.0873 13.4734 11.0819C13.4324 11.0819 13.3886 11.0819 13.3503 11.0955C13.2299 11.1311 12.9562 11.2159 12.8933 11.2679C12.8878 11.2734 12.6881 11.3911 12.6881 11.3911C12.6334 11.4348 12.4856 11.6182 12.4637 11.6838C12.398 11.8836 12.3378 12.0779 12.2694 12.2749C12.253 12.3214 12.2503 12.3706 12.2448 12.4199C12.2339 12.5376 12.0779 12.5239 12.0779 12.4199C12.0724 10.945 12.0314 9.47291 12.1025 7.99804C12.0697 7.88859 12.0396 7.78734 12.0067 7.67516C11.9903 7.64779 11.9876 7.61769 11.9931 7.58759C11.9876 7.5274 11.9794 7.44257 11.9739 7.38237C11.8316 7.05402 11.6893 6.72566 11.547 6.40004C11.4923 6.32616 11.4376 6.25775 11.3829 6.18387C11.1038 5.96223 10.8438 5.7187 10.6413 5.42044C8.31821 3.76772 5.30828 4.90602 4.6844 7.68063C4.55306 8.2662 4.60779 8.85997 4.616 9.45102C4.62147 9.79853 4.5257 9.95176 4.15356 9.92987C3.75133 9.90524 3.34362 9.91071 2.94138 9.93808C1.93442 10.0037 1.11627 10.4005 0.569008 11.2953C-0.183475 12.5321 -0.0794957 13.8483 0.246124 15.1507C0.640152 16.7159 1.65806 17.4355 3.28068 17.441C3.57073 17.441 3.86078 17.4574 4.14535 17.4355C4.49286 17.4082 4.64883 17.5204 4.62421 17.8952C4.59684 18.2975 4.59137 18.7052 4.62968 19.1074C4.71998 20.0815 4.99634 20.9845 5.71052 21.7069C5.95952 21.9586 6.27693 22.0763 6.57245 22.2405C6.58887 22.2378 6.60255 22.235 6.61897 22.235C6.62444 22.235 6.62991 22.235 6.63539 22.235C6.6436 22.235 6.65454 22.235 6.66275 22.235C6.66822 22.235 6.6737 22.235 6.67917 22.2378C6.68738 22.2378 6.69559 22.2378 6.70379 22.2432C6.70927 22.2432 6.71474 22.2487 6.72021 22.2487C6.72842 22.2487 6.73389 22.2542 6.7421 22.2569C6.74758 22.2569 6.75305 22.2624 6.75578 22.2651C6.76126 22.2679 6.76947 22.2733 6.77494 22.2761C6.78041 22.2788 6.78315 22.2843 6.78862 22.287C6.79409 22.2925 6.79957 22.2952 6.80504 22.3007C6.81051 22.3062 6.81325 22.3116 6.81872 22.3144C6.82419 22.3198 6.82966 22.3253 6.8324 22.3308C6.83787 22.3363 6.84061 22.3417 6.84335 22.3499C6.84608 22.3554 6.85155 22.3609 6.85429 22.3664C6.97195 22.4129 7.07046 22.4484 7.18538 22.495C7.2018 22.4895 7.21822 22.4868 7.23464 22.4868C7.25106 22.4868 7.26474 22.4868 7.27842 22.4895H7.28115C7.29484 22.4922 7.30578 22.4977 7.31946 22.5059C7.31946 22.5059 7.3222 22.5059 7.32494 22.5086C7.33588 22.5169 7.34683 22.5278 7.35777 22.5415C7.35777 22.5415 7.35777 22.5415 7.36051 22.5442C7.44533 22.5661 7.52195 22.5853 7.60677 22.6099C7.61772 22.6044 7.6314 22.6017 7.64235 22.5962C7.64508 22.5962 7.64782 22.5962 7.65329 22.5935C7.6615 22.5935 7.66971 22.588 7.67792 22.5853C7.68065 22.5853 7.68613 22.5853 7.68886 22.5853C7.69707 22.5853 7.70528 22.5853 7.71349 22.5825C7.71623 22.5825 7.7217 22.5825 7.72443 22.5825C7.73264 22.5825 7.74085 22.5825 7.7518 22.5825C7.7518 22.5825 7.75727 22.5825 7.76001 22.5825C7.77095 22.5825 7.7819 22.5853 7.79284 22.5907C7.79284 22.5907 7.79832 22.5907 7.80105 22.5935C7.80926 22.5962 7.81747 22.5989 7.82568 22.6044C7.82841 22.6044 7.83115 22.6099 7.83662 22.6099C7.83936 22.6099 7.84483 22.6154 7.84757 22.6181C8.18687 22.6455 8.46871 22.6674 8.80801 22.692C8.82169 22.6838 8.83537 22.6756 8.85179 22.6673C8.86 22.6619 8.86821 22.6591 8.87642 22.6537C8.8901 22.6455 8.90105 22.64 8.91473 22.6318C8.93114 22.6236 8.94756 22.6154 8.96398 22.6099C8.97766 22.6044 8.99134 22.5989 9.00229 22.5935C9.01871 22.588 9.03512 22.5825 9.05154 22.5771C9.06522 22.5716 9.0789 22.5688 9.09259 22.5634C9.109 22.5579 9.12816 22.5552 9.14458 22.5497C9.15826 22.547 9.17194 22.5442 9.18288 22.5415C9.20204 22.5387 9.21846 22.536 9.23761 22.5305C9.25129 22.5305 9.26224 22.5251 9.27592 22.5251C9.29507 22.5251 9.31423 22.5196 9.33338 22.5196C9.34433 22.5196 9.35801 22.5169 9.36895 22.5169C9.39084 22.5169 9.41273 22.5141 9.43462 22.5141C9.44283 22.5141 9.45378 22.5141 9.46199 22.5141C9.49209 22.5141 9.52492 22.5141 9.55776 22.5141C9.63164 22.4785 9.72467 22.432 9.80129 22.3965C9.80129 22.3965 9.80129 22.3965 9.80402 22.3937C9.81497 22.38 9.82318 22.3691 9.83686 22.3609C9.83686 22.3609 9.83686 22.3609 9.8396 22.3609C9.85054 22.3527 9.86149 22.3472 9.87517 22.3417C9.8779 22.3417 9.88064 22.3417 9.88338 22.339C9.89706 22.3363 9.91074 22.3335 9.92716 22.3335C9.92989 22.3335 9.93263 22.3335 9.93537 22.3335C9.94905 22.3335 9.96547 22.339 9.98188 22.3417C9.98188 22.3417 9.98462 22.3417 9.98736 22.3417C10.0421 22.3171 10.0722 22.3034 10.1269 22.2788C10.1324 22.2678 10.1351 22.2569 10.1406 22.246C10.1406 22.246 10.1433 22.2405 10.1461 22.2378C10.1488 22.2295 10.1543 22.2241 10.1597 22.2159C10.1597 22.2131 10.1652 22.2104 10.168 22.2077C10.1707 22.2022 10.1762 22.1967 10.1816 22.1912C10.1844 22.1885 10.1871 22.1858 10.1898 22.183C10.1953 22.1803 10.1981 22.1748 10.2035 22.1721C10.2063 22.1721 10.2117 22.1666 10.2145 22.1666C10.2199 22.1639 10.2254 22.1611 10.2309 22.1584C10.2336 22.1584 10.2391 22.1557 10.2418 22.1529C10.2473 22.1529 10.2528 22.1502 10.2583 22.1502C10.2637 22.1502 10.2665 22.1502 10.2719 22.1502C10.2774 22.1502 10.2856 22.1502 10.2911 22.1502C10.2966 22.1502 10.302 22.1502 10.3075 22.1502C10.3075 22.1502 10.313 22.1502 10.3157 22.1502C10.3978 22.1037 10.4744 22.0599 10.5565 22.0106C10.5565 22.0106 10.5565 22.0106 10.5565 22.0079C10.5565 22.0079 10.5675 21.986 10.5729 21.9751C10.5784 21.9669 10.5811 21.9559 10.5866 21.9477C10.5948 21.9368 10.603 21.9285 10.6112 21.9203C10.6167 21.9149 10.6222 21.9067 10.6277 21.9012C10.6386 21.893 10.6495 21.8875 10.6632 21.882C10.6687 21.8793 10.6742 21.8738 10.6824 21.8711C10.7015 21.8629 10.7262 21.8601 10.7508 21.8601C10.9259 21.6878 11.101 21.5154 11.2734 21.3457C11.2734 21.2445 11.3309 21.1843 11.4212 21.1514C11.9192 20.5111 12.1408 19.7778 12.1408 18.9733C12.1408 17.8761 12.1408 16.7761 12.1408 15.6788C12.1408 15.5283 12.1545 15.3806 12.1627 15.2109C12.3077 15.0358 12.305 15.3122 12.3351 15.3751C12.6197 16.0017 13.0931 16.3219 13.6704 16.2808C14.2751 16.237 14.7184 15.854 14.8662 15.1589C14.9319 14.8552 15.0933 14.8443 15.3259 14.8443C16.6119 14.8443 17.898 14.8443 19.1841 14.8443C19.5699 14.8443 19.9557 14.8443 20.347 14.8443C20.3908 14.598 20.4154 14.4065 20.3278 14.2012C18.5629 14.2012 16.8172 14.2012 15.0714 14.2012C14.3162 14.2012 14.3162 14.2012 14.245 14.9455C14.2396 15.003 14.2286 15.0604 14.2149 15.1152C14.1411 15.4408 13.9194 15.6186 13.5993 15.6241C13.2846 15.6296 13.0356 15.4873 12.959 15.1535C12.9234 15.0002 12.9015 14.8388 12.9125 14.6828C12.9398 14.349 12.8577 14.1465 12.4664 14.2012C12.2585 14.2313 12.1162 14.1602 12.1408 13.8948C12.1545 13.747 12.1545 13.5992 12.1408 13.4515C12.1244 13.2764 12.1873 13.1286 12.3652 13.156C12.9261 13.2463 12.9207 12.907 12.9097 12.5075C12.896 12.0095 13.1615 11.7221 13.5746 11.7167L13.5719 11.7085ZM11.5142 18.8694C11.4951 21.1952 9.30328 22.6783 7.16076 21.7945C6.00877 21.3211 5.37669 20.4017 5.28913 19.1539C5.24535 18.5219 5.25903 17.8816 5.27818 17.2467C5.28913 16.8992 5.16052 16.787 4.82396 16.8035C4.37794 16.8253 3.92919 16.8117 3.48043 16.8117C1.81129 16.8117 0.946617 16.0975 0.667515 14.4338C0.503336 13.457 0.599107 12.5075 1.11627 11.6291C1.5185 10.9478 2.13417 10.6194 2.90307 10.5811C3.55158 10.5483 4.20282 10.5537 4.85406 10.5729C5.16599 10.5811 5.2645 10.4525 5.2645 10.1707C5.2645 9.57962 5.25629 8.98858 5.2645 8.39754C5.29734 6.61073 6.6436 5.27816 8.39757 5.29184C10.1296 5.30278 11.4595 6.64904 11.4732 8.43037C11.4868 10.1488 11.5033 13.5828 11.5169 13.5828C11.5169 15.345 11.5279 17.1072 11.5142 18.8694Z" fill="#B69148"/>
<path d="M40.292 12.4663H22.9111C22.9001 12.6879 22.8536 12.8713 22.9548 13.1011C23.0944 13.1011 23.2476 13.1011 23.4036 13.1011C28.5889 13.0929 33.7769 13.0874 38.9622 13.0792C39.6709 13.0792 39.6381 13.0792 39.6545 13.7852C39.6654 14.2723 39.2769 14.1026 39.0279 14.2367C39.0279 14.3899 39.0279 14.5459 39.0279 14.7019C39.0361 15.9004 39.0388 17.0989 39.058 18.3001C39.0634 18.5847 38.9978 18.7461 38.6749 18.7133C38.4095 18.6859 38.0784 18.82 38.0838 18.3302C38.0948 17.378 38.062 16.4257 38.0674 15.4762C38.0674 15.1698 37.9552 15.0658 37.6625 15.0713C37.1727 15.0822 36.6801 15.0904 36.1903 15.0713C35.8565 15.0548 35.7252 15.1561 35.7388 15.5091C35.7662 16.1302 35.7388 16.7514 35.7525 17.3725C35.7607 17.6543 35.6622 17.7474 35.3804 17.7528C35.0466 17.761 34.8523 17.6926 34.8988 17.3041C34.9234 17.1043 34.8824 16.8991 34.9043 16.6994C34.9453 16.3327 34.7948 16.2232 34.4391 16.2342C33.7605 16.2533 33.7578 16.2342 33.7441 15.5693C33.7441 15.5255 33.7441 15.4817 33.7495 15.4407C33.7933 15.1643 33.6565 15.0795 33.402 15.0904C33.0408 15.1041 32.6797 15.1205 32.3212 15.1068C32.0448 15.0959 31.9709 15.2245 31.9737 15.4708C31.9819 16.3792 31.9956 17.2877 31.9792 18.1961C31.9627 19.1566 32.2008 19.0362 31.1117 19.0635C30.7642 19.0717 30.6685 18.9541 30.6712 18.6148C30.6849 17.2849 30.6603 15.9578 30.6822 14.628C30.6876 14.2558 30.5618 14.171 30.2115 14.1738C27.9158 14.1902 25.6173 14.1874 23.3215 14.1902C23.1929 14.1902 23.0616 14.1628 22.9329 14.2394C22.87 14.4173 22.8782 14.5979 22.9412 14.8359C23.0944 14.8359 23.223 14.8359 23.3516 14.8359C25.36 14.8359 27.3685 14.8305 29.3769 14.8277C29.8074 14.8277 30.0236 15.0357 30.0254 15.4516C30.0254 16.7377 30.0391 18.0237 30.0254 19.3098C30.0227 19.6382 30.1404 19.7421 30.4523 19.7339C31.0297 19.7175 31.607 19.7093 32.1844 19.7339C32.5401 19.7476 32.6769 19.6354 32.6632 19.2688C32.6386 18.5901 32.655 17.9115 32.655 17.2329C32.655 16.828 32.655 16.423 32.655 16.0208C32.655 15.873 32.7125 15.769 32.8849 15.7745C33.0326 15.78 33.0792 15.8757 33.0846 16.0043C33.0846 16.0755 33.0874 16.1494 33.0874 16.2205C33.0819 16.9839 33.0518 16.8936 33.7632 16.8964C33.7933 16.8964 33.8207 16.8991 33.8508 16.8964C34.1272 16.8663 34.2476 16.9785 34.2366 17.2658C34.2257 17.5394 34.2612 17.813 34.253 18.0867C34.2476 18.3384 34.3625 18.4068 34.5951 18.4013C35.0849 18.3904 35.5774 18.3849 36.0672 18.4013C36.3353 18.4096 36.4202 18.3083 36.4147 18.0456C36.401 17.4245 36.4339 16.8033 36.3983 16.1822C36.3764 15.78 36.5707 15.7417 36.8908 15.7471C37.2137 15.7499 37.4381 15.7553 37.4244 16.1959C37.3943 17.1208 37.4271 18.0456 37.4135 18.9705C37.408 19.2797 37.4846 19.4192 37.8239 19.4028C38.3137 19.3782 38.8062 19.3782 39.296 19.4028C39.6299 19.4192 39.7119 19.2824 39.7092 18.9705C39.6901 17.772 39.6901 16.5735 39.6873 15.3723C39.6873 15.2026 39.6463 15.0247 39.742 14.877C39.9172 14.7402 40.2838 14.9509 40.2948 14.5815C40.3139 13.8782 40.3002 13.175 40.3002 12.4718L40.292 12.4663Z" fill="#B69148"/>
<path d="M9.46176 22.5058C9.46176 22.5058 9.4426 22.5058 9.43439 22.5058C9.4125 22.5058 9.39061 22.5058 9.36872 22.5085C9.35778 22.5085 9.3441 22.5085 9.33315 22.5112C9.314 22.5112 9.29484 22.514 9.27569 22.5167C9.26201 22.5167 9.25106 22.5222 9.23738 22.5222C9.21823 22.5249 9.20181 22.5277 9.18266 22.5331C9.16897 22.5359 9.15529 22.5386 9.14435 22.5413C9.12793 22.5468 9.10878 22.5495 9.09236 22.555C9.07868 22.5578 9.06499 22.5632 9.05131 22.5687C9.0349 22.5742 9.01848 22.5796 9.00206 22.5851C8.98838 22.5906 8.9747 22.5961 8.96375 22.6015C8.94733 22.6097 8.93092 22.6152 8.9145 22.6234C8.90082 22.6289 8.88987 22.6371 8.87619 22.6453C8.86798 22.6508 8.85977 22.6535 8.85156 22.659C9.12246 22.7575 9.35231 22.6864 9.55753 22.4976C9.52469 22.4976 9.49459 22.4976 9.46176 22.4976V22.5058Z" fill="#E0D0B1"/>
<path d="M7.80072 22.5935C7.80072 22.5935 7.79525 22.5935 7.79251 22.5907C7.78157 22.588 7.77062 22.5853 7.75968 22.5825C7.75968 22.5825 7.75421 22.5825 7.75147 22.5825C7.74326 22.5825 7.73505 22.5825 7.72411 22.5825C7.72137 22.5825 7.7159 22.5825 7.71316 22.5825C7.70495 22.5825 7.69674 22.5825 7.68853 22.5853C7.6858 22.5853 7.68033 22.5853 7.67759 22.5853C7.66938 22.5853 7.66117 22.5907 7.65296 22.5935C7.65023 22.5935 7.64749 22.5935 7.64202 22.5962C7.63107 22.5989 7.61739 22.6044 7.60645 22.6099C7.68033 22.7248 7.77062 22.7631 7.88555 22.6619C7.86913 22.6372 7.84998 22.6208 7.83082 22.6071C7.82809 22.6071 7.82535 22.6017 7.81988 22.6017C7.81167 22.5962 7.80346 22.5935 7.79525 22.5907L7.80072 22.5935Z" fill="#E0D0B1"/>
<path d="M6.81853 22.3171C6.81853 22.3171 6.81032 22.3062 6.80485 22.3035C6.79938 22.298 6.79391 22.2925 6.78843 22.2898C6.78296 22.287 6.78022 22.2816 6.77475 22.2788C6.76928 22.2734 6.76381 22.2706 6.7556 22.2679C6.75013 22.2652 6.74465 22.2624 6.74192 22.2597C6.73644 22.2569 6.72823 22.2542 6.72003 22.2515C6.71455 22.2515 6.70908 22.246 6.70361 22.246C6.6954 22.246 6.68719 22.2433 6.67898 22.2405C6.67351 22.2405 6.66804 22.2405 6.66256 22.2378C6.65435 22.2378 6.64341 22.2378 6.6352 22.2378C6.62973 22.2378 6.62426 22.2378 6.61878 22.2378C6.6051 22.2378 6.58868 22.2378 6.57227 22.2433C6.61605 22.3938 6.72823 22.3992 6.8541 22.3828C6.84863 22.3746 6.84316 22.3664 6.84042 22.3609C6.83769 22.3555 6.83221 22.35 6.82948 22.3418C6.824 22.3363 6.82127 22.3308 6.8158 22.3254L6.81853 22.3171Z" fill="#E0D0B1"/>
<path d="M11.2705 21.3403C11.4019 21.3375 11.4429 21.2664 11.4183 21.146C11.328 21.1788 11.2705 21.239 11.2705 21.3403Z" fill="#E0D0B1"/>
<path d="M10.6604 21.8793C10.6604 21.8793 10.6358 21.8903 10.6249 21.8985C10.6194 21.9039 10.6139 21.9121 10.6084 21.9176C10.6002 21.9258 10.592 21.934 10.5838 21.945C10.5783 21.9532 10.5756 21.9614 10.5701 21.9723C10.5647 21.9833 10.5592 21.9915 10.5537 22.0052C10.6741 22.0298 10.7453 21.9888 10.748 21.8574C10.7234 21.8574 10.7015 21.8629 10.6796 21.8684C10.6714 21.8684 10.6686 21.8766 10.6604 21.8793Z" fill="#E0D0B1"/>
<path d="M10.2882 22.1445C10.2882 22.1445 10.2745 22.1445 10.269 22.1445C10.2636 22.1445 10.2608 22.1445 10.2554 22.1445C10.2499 22.1445 10.2444 22.1445 10.2389 22.1473C10.2335 22.1473 10.2307 22.1473 10.228 22.1527C10.2225 22.1527 10.2171 22.1582 10.2116 22.1609C10.2088 22.1609 10.2034 22.1637 10.2006 22.1664C10.1952 22.1692 10.1924 22.1746 10.187 22.1774C10.1842 22.1774 10.1815 22.1828 10.1787 22.1856C10.1733 22.191 10.1705 22.1965 10.1651 22.202C10.1651 22.2047 10.1596 22.2075 10.1569 22.2102C10.1514 22.2157 10.1487 22.2239 10.1432 22.2321C10.1432 22.2321 10.1404 22.2376 10.1377 22.2403C10.1322 22.2512 10.1268 22.2622 10.124 22.2731C10.2362 22.3032 10.3019 22.2595 10.3347 22.1527C10.3238 22.15 10.3128 22.1473 10.3019 22.1473C10.2964 22.1473 10.2909 22.1473 10.2855 22.1473L10.2882 22.1445Z" fill="#E0D0B1"/>
<path d="M9.92452 22.3252C9.90811 22.3252 9.89442 22.3252 9.88074 22.3307C9.87801 22.3307 9.87527 22.3307 9.87253 22.3334C9.86159 22.3389 9.84791 22.3444 9.83696 22.3526C9.83696 22.3526 9.83696 22.3526 9.83423 22.3526C9.82328 22.3608 9.81234 22.3717 9.80139 22.3854C9.79044 22.3991 9.7795 22.4155 9.76855 22.4346C9.87527 22.4757 9.94915 22.4429 9.98746 22.3389C9.98199 22.3389 9.97925 22.3389 9.97651 22.3361C9.9601 22.3307 9.94641 22.3279 9.93 22.3279C9.92726 22.3279 9.92452 22.3279 9.92179 22.3279L9.92452 22.3252Z" fill="#E0D0B1"/>
<path d="M7.33057 22.5111C7.33057 22.5111 7.32783 22.5111 7.3251 22.5084C7.31415 22.5002 7.30047 22.4947 7.28679 22.492H7.28405C7.27037 22.4893 7.25395 22.4893 7.24027 22.4893C7.22385 22.4893 7.20744 22.4947 7.19102 22.4975C7.19102 22.4975 7.18828 22.4975 7.18555 22.4975C7.22386 22.5932 7.26764 22.6726 7.37435 22.5577C7.37162 22.5522 7.36888 22.5467 7.36341 22.544C7.35246 22.5303 7.34425 22.5194 7.33057 22.5111Z" fill="#E0D0B1"/>
<path d="M10.2965 13.7718C10.2965 12.0397 10.2965 10.3049 10.2965 8.57285C10.2965 7.73828 9.97087 7.07062 9.20744 6.69848C7.9077 6.06913 6.47935 6.9639 6.44651 8.41961C6.42189 9.41563 6.43557 10.4116 6.44651 11.4077C6.44925 11.6895 6.35622 11.7825 6.07164 11.7798C5.10573 11.7661 4.13707 11.7716 3.16842 11.7798C2.46246 11.788 2.0739 12.1027 1.90699 12.7895C1.77017 13.3586 1.76197 13.936 1.89604 14.5051C2.07664 15.2823 2.47888 15.5997 3.27514 15.6051C4.12613 15.6106 4.97986 15.6051 5.83085 15.6051C6.44925 15.6051 6.44378 15.6051 6.44925 16.2454C6.45746 17.1977 6.45199 18.1499 6.49303 19.1021C6.53407 20.0352 7.39875 20.8287 8.32909 20.8424C9.45097 20.8588 10.291 20.0379 10.2992 18.8805C10.3129 17.1758 10.302 15.4738 10.302 13.7691H10.291L10.2965 13.7718ZM8.97212 20.079C8.50968 20.3198 8.04451 20.2705 7.62312 19.9641C7.24278 19.6877 7.10049 19.2937 7.10323 18.8312C7.10323 17.6902 7.08681 16.5492 7.10323 15.4081C7.1087 15.036 6.97462 14.943 6.62711 14.9484C5.51617 14.9676 4.4025 14.9621 3.28882 14.9594C2.74156 14.9594 2.61569 14.8444 2.49256 14.3109C2.38858 13.8649 2.42141 13.4188 2.51992 12.9783C2.60748 12.5952 2.82912 12.3927 3.25599 12.3982C4.39702 12.4119 5.53806 12.39 6.6791 12.4064C7.00745 12.4119 7.10049 12.2942 7.09775 11.9795C7.08134 10.8659 7.12512 9.75219 7.0786 8.64126C7.03755 7.60967 7.64228 7.1445 8.38108 7.13082C9.10073 7.11714 9.63978 7.77932 9.64251 8.64126C9.64251 10.3323 9.64251 12.0233 9.64251 13.7116H9.65346C9.65346 15.4464 9.65346 17.1785 9.65346 18.9133C9.65346 19.4414 9.42635 19.8382 8.96665 20.079H8.97212Z" fill="#B69148"/>
<path d="M45.1267 2.35026C44.708 1.63882 44.1389 1.07514 43.4192 0.659226C42.6996 0.246045 41.9088 0.0380859 41.0441 0.0380859H17.501V6.85148H20.6806V4.70074C20.6806 4.28756 20.8311 3.92911 21.132 3.63359C21.433 3.33533 21.7915 3.18757 22.2102 3.18757H41.0468C41.4655 3.18757 41.824 3.33806 42.1249 3.63359C42.4259 3.93184 42.5764 4.28756 42.5764 4.70074V23.3514C42.5764 23.7673 42.4259 24.123 42.1249 24.4213C41.824 24.7195 41.4628 24.8673 41.0468 24.8673H22.2102C21.7915 24.8673 21.4303 24.7195 21.132 24.4213C20.8311 24.123 20.6806 23.7673 20.6806 23.3514V20.8066H17.501V28.014H41.0468C41.9115 28.014 42.7023 27.8061 43.422 27.3929C44.1416 26.9797 44.7108 26.416 45.1294 25.7019C45.5481 24.9904 45.756 24.2051 45.756 23.3514V4.70074C45.756 3.84702 45.5453 3.0617 45.1294 2.35026H45.1267Z" fill="white"/>
<path d="M51.4854 28.014V0.0380859H54.7032V28.014H51.4854Z" fill="white"/>
<path d="M72.1258 4.70074C72.1258 3.84702 72.3337 3.0617 72.7524 2.35026C73.1711 1.63882 73.7402 1.07514 74.4599 0.659226C75.1795 0.246045 75.9703 0.0380859 76.835 0.0380859H95.6717C96.5363 0.0380859 97.3271 0.246045 98.0468 0.659226C98.7664 1.07514 99.3356 1.63609 99.7542 2.35026C100.173 3.0617 100.381 3.84702 100.381 4.70074V28.014H97.2013V17.7939H75.3026V28.014H72.123V4.70074H72.1258ZM97.204 14.6472V4.70074C97.204 4.28756 97.0535 3.92911 96.7525 3.63359C96.4515 3.33533 96.0903 3.18757 95.6744 3.18757H76.8377C76.419 3.18757 76.0579 3.33806 75.7596 3.63359C75.4586 3.93184 75.3081 4.28756 75.3081 4.70074V14.6472H97.2067H97.204Z" fill="white"/>
<path d="M105.837 28.0142V0H109.016V24.8675H134.095V28.0142H105.84H105.837Z" fill="white"/>
<path d="M137.351 28.0142V0H140.53V24.8675H165.608V28.0142H137.353H137.351Z" fill="white"/>
<path d="M173.453 28.014C172.589 28.014 171.798 27.8061 171.078 27.3929C170.359 26.9797 169.789 26.416 169.371 25.7019C168.952 24.9904 168.744 24.2051 168.744 23.3514V4.70074C168.744 3.84702 168.952 3.0617 169.371 2.35026C169.789 1.63882 170.359 1.07514 171.078 0.659226C171.798 0.246045 172.589 0.0380859 173.453 0.0380859H192.29C193.155 0.0380859 193.945 0.246045 194.665 0.659226C195.385 1.07514 195.954 1.63609 196.373 2.35026C196.791 3.0617 196.999 3.84702 196.999 4.70074V23.3514C196.999 24.2051 196.788 24.9904 196.373 25.7019C195.954 26.4133 195.385 26.977 194.665 27.3929C193.945 27.8088 193.155 28.014 192.29 28.014H173.453ZM173.453 24.8673H192.29C192.709 24.8673 193.067 24.7195 193.368 24.4213C193.669 24.123 193.82 23.7673 193.82 23.3514V4.70074C193.82 4.28756 193.669 3.92911 193.368 3.63359C193.067 3.33533 192.706 3.18757 192.29 3.18757H173.453C173.035 3.18757 172.673 3.33806 172.375 3.63359C172.074 3.93184 171.924 4.28756 171.924 4.70074V23.3514C171.924 23.7673 172.074 24.123 172.375 24.4213C172.676 24.7195 173.035 24.8673 173.453 24.8673Z" fill="white"/>
<path d="M93.1807 37.2529L93.3799 37.4316C92.9229 37.8477 92.3848 38.0557 91.7656 38.0557C91.1016 38.0557 90.5352 37.8223 90.0664 37.3555C89.5996 36.8867 89.3662 36.3203 89.3662 35.6562C89.3662 34.9941 89.5996 34.4287 90.0664 33.96C90.5352 33.4912 91.1016 33.2568 91.7656 33.2568C92.3848 33.2568 92.9229 33.4648 93.3799 33.8809L93.1807 34.0625C92.7783 33.7051 92.3066 33.5264 91.7656 33.5264C91.1777 33.5264 90.6758 33.7344 90.2598 34.1504C89.8438 34.5664 89.6357 35.0684 89.6357 35.6562C89.6357 36.2461 89.8438 36.749 90.2598 37.165C90.6758 37.5811 91.1777 37.7891 91.7656 37.7891C92.3066 37.7891 92.7783 37.6104 93.1807 37.2529ZM95.5479 34.8623C95.9932 34.8623 96.3721 35.0195 96.6846 35.334C96.999 35.6484 97.1562 36.0283 97.1562 36.4736C97.1562 36.917 96.999 37.2959 96.6846 37.6104C96.3721 37.9248 95.9932 38.082 95.5479 38.082C95.1045 38.082 94.7256 37.9248 94.4111 37.6104C94.0967 37.2959 93.9395 36.917 93.9395 36.4736C93.9395 36.0283 94.0967 35.6484 94.4111 35.334C94.7256 35.0195 95.1045 34.8623 95.5479 34.8623ZM95.5479 35.1436C95.1807 35.1436 94.8672 35.2734 94.6074 35.5332C94.3477 35.793 94.2178 36.1064 94.2178 36.4736C94.2178 36.8408 94.3477 37.1543 94.6074 37.4141C94.8672 37.6719 95.1807 37.8008 95.5479 37.8008C95.915 37.8008 96.2285 37.6719 96.4883 37.4141C96.748 37.1543 96.8779 36.8408 96.8779 36.4736C96.8779 36.1064 96.748 35.793 96.4883 35.5332C96.2285 35.2734 95.915 35.1436 95.5479 35.1436ZM98.123 35.7646V38H97.8594V35.123H98.123V35.3076C98.3633 35.0693 98.6426 34.9502 98.9609 34.9502C99.3008 34.9502 99.5771 35.0566 99.79 35.2695C100.003 35.4824 100.112 35.751 100.118 36.0752V38H99.8545V36.0986C99.8545 35.8545 99.7656 35.6465 99.5879 35.4746C99.4121 35.3008 99.2031 35.2139 98.9609 35.2139C98.7188 35.2139 98.5098 35.2988 98.334 35.4688C98.2383 35.5645 98.168 35.6631 98.123 35.7646ZM103.467 37.3086L103.745 37.4082C103.694 37.4785 103.637 37.5459 103.572 37.6104C103.258 37.9248 102.878 38.082 102.433 38.082C101.989 38.082 101.61 37.9248 101.296 37.6104C100.981 37.2959 100.824 36.916 100.824 36.4707C100.824 36.0273 100.981 35.6484 101.296 35.334C101.61 35.0195 101.989 34.8623 102.433 34.8623C102.878 34.8623 103.258 35.0195 103.572 35.334C103.637 35.3984 103.694 35.4648 103.745 35.5332L103.467 35.6357C103.438 35.6006 103.406 35.5654 103.373 35.5303C103.113 35.2725 102.8 35.1436 102.433 35.1436C102.067 35.1436 101.755 35.2734 101.495 35.5332C101.235 35.791 101.105 36.1035 101.105 36.4707C101.105 36.8379 101.235 37.1514 101.495 37.4111C101.755 37.6709 102.067 37.8008 102.433 37.8008C102.8 37.8008 103.113 37.6709 103.373 37.4111C103.406 37.3779 103.438 37.3438 103.467 37.3086ZM104.773 35.123V38H104.51V35.123H104.773ZM104.642 34.1035C104.714 34.1035 104.775 34.1289 104.826 34.1797C104.879 34.2305 104.905 34.292 104.905 34.3643C104.905 34.4385 104.879 34.501 104.826 34.5518C104.775 34.6025 104.714 34.6279 104.642 34.6279C104.569 34.6279 104.507 34.6025 104.454 34.5518C104.403 34.501 104.378 34.4385 104.378 34.3643C104.378 34.292 104.403 34.2305 104.454 34.1797C104.507 34.1289 104.569 34.1035 104.642 34.1035ZM106.259 37.4609C106.507 37.6875 106.802 37.8008 107.144 37.8008C107.511 37.8008 107.824 37.6709 108.084 37.4111C108.117 37.3779 108.148 37.3438 108.178 37.3086L108.456 37.4082C108.405 37.4785 108.348 37.5459 108.283 37.6104C107.969 37.9248 107.589 38.082 107.144 38.082C106.7 38.082 106.321 37.9248 106.007 37.6104C105.692 37.2959 105.535 36.916 105.535 36.4707C105.535 36.0273 105.692 35.6484 106.007 35.334C106.321 35.0195 106.7 34.8623 107.144 34.8623C107.524 34.8623 107.857 34.9766 108.143 35.2051C108.189 35.2441 108.236 35.2871 108.283 35.334C108.301 35.3516 108.317 35.3691 108.333 35.3867L108.134 35.5859L106.259 37.4609ZM107.94 35.4072C107.712 35.2314 107.446 35.1436 107.144 35.1436C106.778 35.1436 106.466 35.2734 106.206 35.5332C105.946 35.791 105.816 36.1035 105.816 36.4707C105.816 36.7734 105.904 37.0391 106.08 37.2676L107.94 35.4072ZM109.162 35.123H109.426V35.6475C109.48 35.5693 109.544 35.4941 109.616 35.4219C109.849 35.1895 110.087 35.0674 110.331 35.0557V35.3428C110.165 35.3506 109.993 35.4434 109.815 35.6211C109.565 35.8691 109.436 36.167 109.426 36.5146V38H109.162V35.123ZM113.765 36.1982C113.714 35.9463 113.593 35.7246 113.401 35.5332C113.142 35.2734 112.828 35.1436 112.461 35.1436C112.094 35.1436 111.78 35.2734 111.521 35.5332C111.261 35.793 111.131 36.1064 111.131 36.4736C111.131 36.8408 111.261 37.1543 111.521 37.4141C111.78 37.6738 112.094 37.8037 112.461 37.8037C112.828 37.8037 113.142 37.6738 113.401 37.4141C113.591 37.2246 113.712 37.0049 113.765 36.7549V36.1982ZM113.759 37.4287C113.71 37.4912 113.657 37.5518 113.601 37.6104C113.286 37.9248 112.906 38.082 112.461 38.082C112.018 38.082 111.639 37.9248 111.324 37.6104C111.01 37.2959 110.853 36.917 110.853 36.4736C110.853 36.0283 111.01 35.6494 111.324 35.3369C111.639 35.0225 112.018 34.8652 112.461 34.8652C112.906 34.8652 113.286 35.0215 113.601 35.334C113.661 35.3965 113.717 35.4619 113.768 35.5303V35.123H114.031V37.3584C114.031 37.79 113.878 38.1592 113.571 38.4658C113.257 38.7803 112.878 38.9375 112.435 38.9375C111.989 38.9375 111.609 38.7803 111.295 38.4658C111.23 38.4014 111.173 38.334 111.122 38.2637L111.4 38.1641C111.43 38.1992 111.461 38.2334 111.494 38.2666C111.754 38.5264 112.067 38.6562 112.435 38.6562C112.8 38.6562 113.112 38.5264 113.372 38.2666C113.608 38.0303 113.737 37.751 113.759 37.4287ZM115.47 37.4609C115.718 37.6875 116.013 37.8008 116.354 37.8008C116.722 37.8008 117.035 37.6709 117.295 37.4111C117.328 37.3779 117.359 37.3438 117.389 37.3086L117.667 37.4082C117.616 37.4785 117.559 37.5459 117.494 37.6104C117.18 37.9248 116.8 38.082 116.354 38.082C115.911 38.082 115.532 37.9248 115.218 37.6104C114.903 37.2959 114.746 36.916 114.746 36.4707C114.746 36.0273 114.903 35.6484 115.218 35.334C115.532 35.0195 115.911 34.8623 116.354 34.8623C116.735 34.8623 117.068 34.9766 117.354 35.2051C117.4 35.2441 117.447 35.2871 117.494 35.334C117.512 35.3516 117.528 35.3691 117.544 35.3867L117.345 35.5859L115.47 37.4609ZM117.151 35.4072C116.923 35.2314 116.657 35.1436 116.354 35.1436C115.989 35.1436 115.677 35.2734 115.417 35.5332C115.157 35.791 115.027 36.1035 115.027 36.4707C115.027 36.7734 115.115 37.0391 115.291 37.2676L117.151 35.4072ZM118.373 35.123H118.637V35.6475C118.691 35.5693 118.755 35.4941 118.827 35.4219C119.06 35.1895 119.298 35.0674 119.542 35.0557V35.3428C119.376 35.3506 119.204 35.4434 119.026 35.6211C118.776 35.8691 118.646 36.167 118.637 36.5146V38H118.373V35.123ZM120.512 35.123V38H120.248V35.123H120.512ZM120.38 34.1035C120.452 34.1035 120.514 34.1289 120.564 34.1797C120.617 34.2305 120.644 34.292 120.644 34.3643C120.644 34.4385 120.617 34.501 120.564 34.5518C120.514 34.6025 120.452 34.6279 120.38 34.6279C120.308 34.6279 120.245 34.6025 120.192 34.5518C120.142 34.501 120.116 34.4385 120.116 34.3643C120.116 34.292 120.142 34.2305 120.192 34.1797C120.245 34.1289 120.308 34.1035 120.38 34.1035ZM121.997 37.4609C122.245 37.6875 122.54 37.8008 122.882 37.8008C123.249 37.8008 123.562 37.6709 123.822 37.4111C123.855 37.3779 123.887 37.3438 123.916 37.3086L124.194 37.4082C124.144 37.4785 124.086 37.5459 124.021 37.6104C123.707 37.9248 123.327 38.082 122.882 38.082C122.438 38.082 122.06 37.9248 121.745 37.6104C121.431 37.2959 121.273 36.916 121.273 36.4707C121.273 36.0273 121.431 35.6484 121.745 35.334C122.06 35.0195 122.438 34.8623 122.882 34.8623C123.263 34.8623 123.596 34.9766 123.881 35.2051C123.928 35.2441 123.975 35.2871 124.021 35.334C124.039 35.3516 124.056 35.3691 124.071 35.3867L123.872 35.5859L121.997 37.4609ZM123.679 35.4072C123.45 35.2314 123.185 35.1436 122.882 35.1436C122.517 35.1436 122.204 35.2734 121.944 35.5332C121.685 35.791 121.555 36.1035 121.555 36.4707C121.555 36.7734 121.643 37.0391 121.818 37.2676L123.679 35.4072Z" fill="white"/>
<path d="M67.4876 0.0107422H61.4678V6.0306H67.4876V0.0107422Z" fill="#B69148"/>
<path d="M138.085 36.1299H190.075" stroke="white" stroke-width="4" stroke-miterlimit="10"/>
<path d="M22.0654 36.1299H74.0552" stroke="white" stroke-width="4" stroke-miterlimit="10"/>
</g>
<defs>
<clipPath id="clip0_1103_6949">
<rect width="197" height="41.6027" fill="white"/>
</clipPath>
</defs>
</svg>
